<svg width="52" height="64" viewBox="0 0 52 64" fill="none" xmlns="http://www.w3.org/2000/svg">
<path d="M38.375 40.875C38.375 41.7701 38.0194 42.6286 37.3865 43.2615C36.7535 43.8944 35.8951 44.25 35 44.25H17C16.1049 44.25 15.2464 43.8944 14.6135 43.2615C13.9806 42.6286 13.625 41.7701 13.625 40.875C13.625 39.9799 13.9806 39.1215 14.6135 38.4885C15.2464 37.8556 16.1049 37.5 17 37.5H35C35.8951 37.5 36.7535 37.8556 37.3865 38.4885C38.0194 39.1215 38.375 39.9799 38.375 40.875ZM35 26.25H17C16.1049 26.25 15.2464 26.6056 14.6135 27.2385C13.9806 27.8715 13.625 28.7299 13.625 29.625C13.625 30.5201 13.9806 31.3786 14.6135 32.0115C15.2464 32.6444 16.1049 33 17 33H35C35.8951 33 36.7535 32.6444 37.3865 32.0115C38.0194 31.3786 38.375 30.5201 38.375 29.625C38.375 28.7299 38.0194 27.8715 37.3865 27.2385C36.7535 26.6056 35.8951 26.25 35 26.25ZM51.875 10.5V57.75C51.8676 59.2396 51.2726 60.666 50.2193 61.7193C49.166 62.7726 47.7396 63.3676 46.25 63.375H5.75C4.26044 63.3676 2.83399 62.7726 1.78069 61.7193C0.727398 60.666 0.132393 59.2396 0.125 57.75V10.5C0.132393 9.01044 0.727398 7.58399 1.78069 6.5307C2.83399 5.4774 4.26044 4.8824 5.75 4.87501H15.4531C16.8158 3.45078 18.4529 2.3173 20.2655 1.54292C22.0782 0.768549 24.0289 0.369324 26 0.369324C27.9711 0.369324 29.9218 0.768549 31.7345 1.54292C33.5471 2.3173 35.1842 3.45078 36.5469 4.87501H46.25C47.7396 4.8824 49.166 5.4774 50.2193 6.5307C51.2726 7.58399 51.8676 9.01044 51.875 10.5ZM26 7.12501C24.1053 7.11999 22.2728 7.80066 20.8409 9.04135C19.4089 10.282 18.4742 11.9989 18.2094 13.875H33.7906C33.5258 11.9989 32.5911 10.282 31.1591 9.04135C29.7272 7.80066 27.8947 7.11999 26 7.12501ZM45.125 11.625H40.2313C40.4902 12.7314 40.6223 13.8637 40.625 15V17.25C40.625 18.1451 40.2694 19.0036 39.6365 19.6365C39.0035 20.2694 38.1451 20.625 37.25 20.625H14.75C13.8549 20.625 12.9964 20.2694 12.3635 19.6365C11.7306 19.0036 11.375 18.1451 11.375 17.25V15C11.3777 13.8637 11.5098 12.7314 11.7688 11.625H6.875V56.625H45.125V11.625Z" fill="#707070"/>
</svg>
