<svg width="20" height="20" viewBox="0 0 20 20" fill="none" xmlns="http://www.w3.org/2000/svg">
<path d="M18.625 2.3125H14.6875V0.8125C14.6875 0.709375 14.6031 0.625 14.5 0.625H13.1875C13.0844 0.625 13 0.709375 13 0.8125V2.3125H7V0.8125C7 0.709375 6.91563 0.625 6.8125 0.625H5.5C5.39687 0.625 5.3125 0.709375 5.3125 0.8125V2.3125H1.375C0.960156 2.3125 0.625 2.64766 0.625 3.0625V18.625C0.625 19.0398 0.960156 19.375 1.375 19.375H18.625C19.0398 19.375 19.375 19.0398 19.375 18.625V3.0625C19.375 2.64766 19.0398 2.3125 18.625 2.3125ZM17.6875 17.6875H2.3125V4H5.3125V5.125C5.3125 5.22813 5.39687 5.3125 5.5 5.3125H6.8125C6.91563 5.3125 7 5.22813 7 5.125V4H13V5.125C13 5.22813 13.0844 5.3125 13.1875 5.3125H14.5C14.6031 5.3125 14.6875 5.22813 14.6875 5.125V4H17.6875V17.6875ZM14.125 7.84375H12.8312C12.7117 7.84375 12.5969 7.90234 12.5266 7.99844L8.98984 12.8688L7.47344 10.7828C7.40313 10.6867 7.29063 10.6281 7.16875 10.6281H5.875C5.72266 10.6281 5.63359 10.8016 5.72266 10.9258L8.68516 15.0039C8.72019 15.0519 8.76604 15.0909 8.81898 15.1177C8.87192 15.1446 8.93046 15.1586 8.98984 15.1586C9.04922 15.1586 9.10776 15.1446 9.16071 15.1177C9.21365 15.0909 9.2595 15.0519 9.29453 15.0039L14.2773 8.14375C14.3664 8.01719 14.2773 7.84375 14.125 7.84375Z" fill="#466E45"/>
</svg>
