<svg width="12" height="14" viewBox="0 0 12 14" fill="none" xmlns="http://www.w3.org/2000/svg">
<path fill-rule="evenodd" clip-rule="evenodd" d="M1.33329 12.3334H10.6666C10.8434 12.3334 11.013 12.4036 11.138 12.5286C11.2631 12.6537 11.3333 12.8232 11.3333 13C11.3333 13.1769 11.2631 13.3464 11.138 13.4714C11.013 13.5965 10.8434 13.6667 10.6666 13.6667H1.33329C1.15648 13.6667 0.986913 13.5965 0.861888 13.4714C0.736864 13.3464 0.666626 13.1769 0.666626 13C0.666626 12.8232 0.736864 12.6537 0.861888 12.5286C0.986913 12.4036 1.15648 12.3334 1.33329 12.3334ZM0.666626 9.00004L7.33329 2.33337L9.33329 4.33337L2.66663 11H0.666626V9.00004ZM7.99996 1.66671L9.33329 0.333374L11.3333 2.33337L9.99929 3.66737L7.99996 1.66671Z" fill="#4F4F4F"/>
</svg>
