<svg width="15" height="15" viewBox="0 0 15 15" fill="none" xmlns="http://www.w3.org/2000/svg">
<path fill-rule="evenodd" clip-rule="evenodd" d="M8.33333 8.33333V14.1667C8.33333 14.3877 8.24554 14.5996 8.08926 14.7559C7.93297 14.9122 7.72101 15 7.5 15C7.27899 15 7.06702 14.9122 6.91074 14.7559C6.75446 14.5996 6.66667 14.3877 6.66667 14.1667V8.33333H0.833333C0.61232 8.33333 0.400358 8.24554 0.244078 8.08926C0.0877973 7.93297 0 7.72101 0 7.5C0 7.27899 0.0877973 7.06702 0.244078 6.91074C0.400358 6.75446 0.61232 6.66667 0.833333 6.66667H6.66667V0.833333C6.66667 0.61232 6.75446 0.400358 6.91074 0.244078C7.06702 0.0877973 7.27899 0 7.5 0C7.72101 0 7.93297 0.0877973 8.08926 0.244078C8.24554 0.400358 8.33333 0.61232 8.33333 0.833333V6.66667H14.1667C14.3877 6.66667 14.5996 6.75446 14.7559 6.91074C14.9122 7.06702 15 7.27899 15 7.5C15 7.72101 14.9122 7.93297 14.7559 8.08926C14.5996 8.24554 14.3877 8.33333 14.1667 8.33333H8.33333Z" fill="white"/>
</svg>
