<svg width="12" height="14" viewBox="0 0 12 14" fill="none" xmlns="http://www.w3.org/2000/svg">
<path d="M0.666667 2.33334H2.66667V1.66668C2.66667 1.31305 2.80714 0.973916 3.05719 0.723868C3.30724 0.473819 3.64638 0.333344 4 0.333344H8C8.35362 0.333344 8.69276 0.473819 8.94281 0.723868C9.19286 0.973916 9.33333 1.31305 9.33333 1.66668V2.33334H11.3333C11.5101 2.33334 11.6797 2.40358 11.8047 2.52861C11.9298 2.65363 12 2.8232 12 3.00001C12 3.17682 11.9298 3.34639 11.8047 3.47141C11.6797 3.59644 11.5101 3.66668 11.3333 3.66668H10.6667V12.3333C10.6667 12.687 10.5262 13.0261 10.2761 13.2762C10.0261 13.5262 9.68696 13.6667 9.33333 13.6667H2.66667C2.31304 13.6667 1.97391 13.5262 1.72386 13.2762C1.47381 13.0261 1.33333 12.687 1.33333 12.3333V3.66668H0.666667C0.489856 3.66668 0.320286 3.59644 0.195262 3.47141C0.0702379 3.34639 0 3.17682 0 3.00001C0 2.8232 0.0702379 2.65363 0.195262 2.52861C0.320286 2.40358 0.489856 2.33334 0.666667 2.33334ZM2.66667 3.66668V12.3333H9.33333V3.66668H2.66667ZM4 2.33334H8V1.66668H4V2.33334ZM4 5.00001H5.33333V11H4V5.00001ZM6.66667 5.00001H8V11H6.66667V5.00001Z" fill="#4F4F4F"/>
</svg>
