<svg width="12" height="14" viewBox="0 0 12 14" fill="none" xmlns="http://www.w3.org/2000/svg">
<path d="M0.666667 2.33337H2.66667V1.66671C2.66667 1.31309 2.80714 0.973947 3.05719 0.723898C3.30724 0.47385 3.64638 0.333374 4 0.333374H8C8.35362 0.333374 8.69276 0.47385 8.94281 0.723898C9.19286 0.973947 9.33333 1.31309 9.33333 1.66671V2.33337H11.3333C11.5101 2.33337 11.6797 2.40361 11.8047 2.52864C11.9298 2.65366 12 2.82323 12 3.00004C12 3.17685 11.9298 3.34642 11.8047 3.47144C11.6797 3.59647 11.5101 3.66671 11.3333 3.66671H10.6667V12.3334C10.6667 12.687 10.5262 13.0261 10.2761 13.2762C10.0261 13.5262 9.68696 13.6667 9.33333 13.6667H2.66667C2.31304 13.6667 1.97391 13.5262 1.72386 13.2762C1.47381 13.0261 1.33333 12.687 1.33333 12.3334V3.66671H0.666667C0.489856 3.66671 0.320286 3.59647 0.195262 3.47144C0.0702379 3.34642 0 3.17685 0 3.00004C0 2.82323 0.0702379 2.65366 0.195262 2.52864C0.320286 2.40361 0.489856 2.33337 0.666667 2.33337ZM2.66667 3.66671V12.3334H9.33333V3.66671H2.66667ZM4 2.33337H8V1.66671H4V2.33337ZM4 5.00004H5.33333V11H4V5.00004ZM6.66667 5.00004H8V11H6.66667V5.00004Z" fill="#FE5F55"/>
</svg>
