<svg width="20" height="20" viewBox="0 0 20 20" fill="none" xmlns="http://www.w3.org/2000/svg">
<path d="M10.04 -1.46553e-06C4.58 -1.46553e-06 0.130003 4.45 0.130003 9.91C0.130003 11.66 0.590003 13.36 1.45 14.86L0.0500031 20L5.3 18.62C6.75 19.41 8.38 19.83 10.04 19.83C15.5 19.83 19.95 15.38 19.95 9.92C19.95 7.27 18.92 4.78 17.05 2.91C16.1332 1.98392 15.0412 1.24967 13.8376 0.75005C12.6341 0.250433 11.3431 -0.00454115 10.04 -1.46553e-06ZM10.05 1.67C12.25 1.67 14.31 2.53 15.87 4.09C16.6356 4.85535 17.2426 5.76432 17.6562 6.76476C18.0697 7.7652 18.2817 8.83745 18.28 9.92C18.28 14.46 14.58 18.15 10.04 18.15C8.56 18.15 7.11 17.76 5.85 17L5.55 16.83L2.43 17.65L3.26 14.61L3.06 14.29C2.23394 12.9787 1.79702 11.4598 1.8 9.91C1.81 5.37 5.5 1.67 10.05 1.67ZM6.53 5.33C6.37 5.33 6.1 5.39 5.87 5.64C5.65 5.89 5 6.5 5 7.71C5 8.93 5.89 10.1 6 10.27C6.14 10.44 7.76 12.94 10.25 14C10.84 14.27 11.3 14.42 11.66 14.53C12.25 14.72 12.79 14.69 13.22 14.63C13.7 14.56 14.68 14.03 14.89 13.45C15.1 12.87 15.1 12.38 15.04 12.27C14.97 12.17 14.81 12.11 14.56 12C14.31 11.86 13.09 11.26 12.87 11.18C12.64 11.1 12.5 11.06 12.31 11.3C12.15 11.55 11.67 12.11 11.53 12.27C11.38 12.44 11.24 12.46 11 12.34C10.74 12.21 9.94 11.95 9 11.11C8.26 10.45 7.77 9.64 7.62 9.39C7.5 9.15 7.61 9 7.73 8.89C7.84 8.78 8 8.6 8.1 8.45C8.23 8.31 8.27 8.2 8.35 8.04C8.43 7.87 8.39 7.73 8.33 7.61C8.27 7.5 7.77 6.26 7.56 5.77C7.36 5.29 7.16 5.35 7 5.34C6.86 5.34 6.7 5.33 6.53 5.33Z" fill="white"/>
</svg>
