<svg width="172" height="172" viewBox="0 0 172 172" fill="none" xmlns="http://www.w3.org/2000/svg">
<g opacity="0.7">
<g opacity="0.7">
<path opacity="0.7" d="M1.87505 3.83319C2.91047 3.83319 3.74985 2.97511 3.74985 1.9166C3.74985 0.8581 2.91047 0 1.87505 0C0.839617 0 0.000244141 0.8581 0.000244141 1.9166C0.000244141 2.97511 0.839617 3.83319 1.87505 3.83319Z" fill="black"/>
<path opacity="0.7" d="M18.6949 3.83319C19.7303 3.83319 20.5697 2.97511 20.5697 1.9166C20.5697 0.8581 19.7303 0 18.6949 0C17.6594 0 16.8201 0.8581 16.8201 1.9166C16.8201 2.97511 17.6594 3.83319 18.6949 3.83319Z" fill="black"/>
<path opacity="0.7" d="M35.5272 3.83319C36.5626 3.83319 37.402 2.97511 37.402 1.9166C37.402 0.8581 36.5626 0 35.5272 0C34.4917 0 33.6523 0.8581 33.6523 1.9166C33.6523 2.97511 34.4917 3.83319 35.5272 3.83319Z" fill="black"/>
<path opacity="0.7" d="M52.3478 3.83319C53.3833 3.83319 54.2226 2.97511 54.2226 1.9166C54.2226 0.8581 53.3833 0 52.3478 0C51.3124 0 50.473 0.8581 50.473 1.9166C50.473 2.97511 51.3124 3.83319 52.3478 3.83319Z" fill="black"/>
<path opacity="0.7" d="M69.1808 3.83319C70.2163 3.83319 71.0556 2.97511 71.0556 1.9166C71.0556 0.8581 70.2163 0 69.1808 0C68.1454 0 67.306 0.8581 67.306 1.9166C67.306 2.97511 68.1454 3.83319 69.1808 3.83319Z" fill="black"/>
<path opacity="0.7" d="M87.8751 1.9166C87.8751 2.97073 87.0314 3.83319 86.0003 3.83319C84.9691 3.83319 84.1255 2.98442 84.1255 1.9166C84.1255 0.862479 84.9691 0 86.0003 0C87.0314 0 87.8751 0.848789 87.8751 1.9166Z" fill="black"/>
<path opacity="0.7" d="M102.82 3.83319C103.855 3.83319 104.695 2.97511 104.695 1.9166C104.695 0.8581 103.855 0 102.82 0C101.785 0 100.945 0.8581 100.945 1.9166C100.945 2.97511 101.785 3.83319 102.82 3.83319Z" fill="black"/>
<path opacity="0.7" d="M121.514 1.9166C121.514 2.97073 120.671 3.83319 119.64 3.83319C118.609 3.83319 117.765 2.98442 117.765 1.9166C117.765 0.862479 118.609 0 119.64 0C120.684 0 121.514 0.848789 121.514 1.9166Z" fill="black"/>
<path opacity="0.7" d="M136.473 3.83319C137.508 3.83319 138.348 2.97511 138.348 1.9166C138.348 0.8581 137.508 0 136.473 0C135.437 0 134.598 0.8581 134.598 1.9166C134.598 2.97511 135.437 3.83319 136.473 3.83319Z" fill="black"/>
<path opacity="0.7" d="M155.167 1.9166C155.167 2.97073 154.324 3.83319 153.293 3.83319C152.262 3.83319 151.418 2.98442 151.418 1.9166C151.418 0.862479 152.262 0 153.293 0C154.337 0 155.167 0.848789 155.167 1.9166Z" fill="black"/>
<path opacity="0.7" d="M170.126 3.83319C171.161 3.83319 172 2.97511 172 1.9166C172 0.8581 171.161 0 170.126 0C169.09 0 168.251 0.8581 168.251 1.9166C168.251 2.97511 169.09 3.83319 170.126 3.83319Z" fill="black"/>
</g>
<g opacity="0.7">
<path opacity="0.7" d="M1.8748 19.1112C2.91023 19.1112 3.7496 18.2531 3.7496 17.1946C3.7496 16.1361 2.91023 15.278 1.8748 15.278C0.839373 15.278 0 16.1361 0 17.1946C0 18.2531 0.839373 19.1112 1.8748 19.1112Z" fill="black"/>
<path opacity="0.7" d="M18.6945 19.1111C19.7299 19.1111 20.5693 18.2531 20.5693 17.1946C20.5693 16.1361 19.7299 15.278 18.6945 15.278C17.6591 15.278 16.8197 16.1361 16.8197 17.1946C16.8197 18.2531 17.6591 19.1111 18.6945 19.1111Z" fill="black"/>
<path opacity="0.7" d="M35.5269 19.1111C36.5623 19.1111 37.4017 18.2531 37.4017 17.1946C37.4017 16.1361 36.5623 15.278 35.5269 15.278C34.4915 15.278 33.6521 16.1361 33.6521 17.1946C33.6521 18.2531 34.4915 19.1111 35.5269 19.1111Z" fill="black"/>
<path opacity="0.7" d="M52.3476 19.1111C53.383 19.1111 54.2224 18.2531 54.2224 17.1946C54.2224 16.1361 53.383 15.278 52.3476 15.278C51.3122 15.278 50.4728 16.1361 50.4728 17.1946C50.4728 18.2531 51.3122 19.1111 52.3476 19.1111Z" fill="black"/>
<path opacity="0.7" d="M69.1805 19.1111C70.2159 19.1111 71.0553 18.2531 71.0553 17.1946C71.0553 16.1361 70.2159 15.278 69.1805 15.278C68.145 15.278 67.3057 16.1361 67.3057 17.1946C67.3057 18.2531 68.145 19.1111 69.1805 19.1111Z" fill="black"/>
<path opacity="0.7" d="M87.8747 17.1946C87.8747 18.2487 87.0311 19.1111 85.9999 19.1111C84.9688 19.1111 84.1251 18.2624 84.1251 17.1946C84.1251 16.1404 84.9688 15.278 85.9999 15.278C87.0311 15.2916 87.8747 16.1404 87.8747 17.1946Z" fill="black"/>
<path opacity="0.7" d="M102.82 19.1111C103.855 19.1111 104.694 18.2531 104.694 17.1946C104.694 16.1361 103.855 15.278 102.82 15.278C101.784 15.278 100.945 16.1361 100.945 17.1946C100.945 18.2531 101.784 19.1111 102.82 19.1111Z" fill="black"/>
<path opacity="0.7" d="M121.514 17.1946C121.514 18.2487 120.67 19.1111 119.639 19.1111C118.608 19.1111 117.765 18.2624 117.765 17.1946C117.765 16.1404 118.608 15.278 119.639 15.278C120.684 15.2916 121.514 16.1404 121.514 17.1946Z" fill="black"/>
<path opacity="0.7" d="M136.472 19.1111C137.508 19.1111 138.347 18.2531 138.347 17.1946C138.347 16.1361 137.508 15.278 136.472 15.278C135.437 15.278 134.598 16.1361 134.598 17.1946C134.598 18.2531 135.437 19.1111 136.472 19.1111Z" fill="black"/>
<path opacity="0.7" d="M155.167 17.1946C155.167 18.2487 154.324 19.1111 153.292 19.1111C152.261 19.1111 151.418 18.2624 151.418 17.1946C151.418 16.1404 152.261 15.278 153.292 15.278C154.337 15.2916 155.167 16.1404 155.167 17.1946Z" fill="black"/>
<path opacity="0.7" d="M170.125 19.1111C171.161 19.1111 172 18.2531 172 17.1946C172 16.1361 171.161 15.278 170.125 15.278C169.09 15.278 168.25 16.1361 168.25 17.1946C168.25 18.2531 169.09 19.1111 170.125 19.1111Z" fill="black"/>
</g>
<g opacity="0.7">
<path opacity="0.7" d="M3.7496 32.4861C3.7496 33.5403 2.90595 34.4027 1.8748 34.4027C0.843656 34.4027 0 33.5403 0 32.4861C0 31.432 0.830265 30.5695 1.8748 30.5695C2.90595 30.5832 3.7496 31.432 3.7496 32.4861Z" fill="black"/>
<path opacity="0.7" d="M20.5693 32.4862C20.5693 33.5403 19.739 34.4028 18.6945 34.4028C17.6634 34.4028 16.8197 33.5403 16.8197 32.4862C16.8197 31.4321 17.6634 30.5696 18.6945 30.5696C19.739 30.5833 20.5693 31.4321 20.5693 32.4862Z" fill="black"/>
<path opacity="0.7" d="M37.3891 32.4862C37.3891 33.5403 36.5454 34.4028 35.5142 34.4028C34.4831 34.4028 33.6394 33.5403 33.6394 32.4862C33.6394 31.4321 34.4697 30.5696 35.5142 30.5696C36.5587 30.5833 37.3891 31.4321 37.3891 32.4862Z" fill="black"/>
<path opacity="0.7" d="M54.2224 32.4862C54.2224 33.5403 53.3921 34.4028 52.3476 34.4028C51.3164 34.4028 50.4728 33.5403 50.4728 32.4862C50.4728 31.4321 51.3164 30.5696 52.3476 30.5696C53.3787 30.5833 54.2224 31.4321 54.2224 32.4862Z" fill="black"/>
<path opacity="0.7" d="M71.0415 32.4862C71.0415 33.5403 70.1978 34.4028 69.1667 34.4028C68.1355 34.4028 67.2919 33.5403 67.2919 32.4862C67.2919 31.4321 68.1221 30.5696 69.1667 30.5696C70.2112 30.5833 71.0415 31.4321 71.0415 32.4862Z" fill="black"/>
<path opacity="0.7" d="M87.8747 32.4862C87.8747 33.5403 87.0311 34.4028 85.9999 34.4028C84.9688 34.4028 84.1251 33.5403 84.1251 32.4862C84.1251 31.4321 84.9688 30.5696 85.9999 30.5696C87.0311 30.5833 87.8747 31.4321 87.8747 32.4862Z" fill="black"/>
<path opacity="0.7" d="M104.694 32.4862C104.694 33.5403 103.851 34.4028 102.82 34.4028C101.788 34.4028 100.945 33.5403 100.945 32.4862C100.945 31.4321 101.775 30.5696 102.82 30.5696C103.851 30.5833 104.694 31.4321 104.694 32.4862Z" fill="black"/>
<path opacity="0.7" d="M121.514 32.4862C121.514 33.5403 120.67 34.4028 119.639 34.4028C118.608 34.4028 117.765 33.5403 117.765 32.4862C117.765 31.4321 118.608 30.5696 119.639 30.5696C120.684 30.5833 121.514 31.4321 121.514 32.4862Z" fill="black"/>
<path opacity="0.7" d="M138.347 32.4862C138.347 33.5403 137.503 34.4028 136.472 34.4028C135.441 34.4028 134.598 33.5403 134.598 32.4862C134.598 31.4321 135.428 30.5696 136.472 30.5696C137.503 30.5833 138.347 31.4321 138.347 32.4862Z" fill="black"/>
<path opacity="0.7" d="M155.167 32.4862C155.167 33.5403 154.324 34.4028 153.292 34.4028C152.261 34.4028 151.418 33.5403 151.418 32.4862C151.418 31.4321 152.261 30.5696 153.292 30.5696C154.337 30.5833 155.167 31.4321 155.167 32.4862Z" fill="black"/>
<path opacity="0.7" d="M172 32.4862C172 33.5403 171.17 34.4028 170.125 34.4028C169.081 34.4028 168.25 33.5403 168.25 32.4862C168.25 31.4321 169.081 30.5696 170.125 30.5696C171.17 30.5696 172 31.4321 172 32.4862Z" fill="black"/>
</g>
<g opacity="0.7">
<path opacity="0.7" d="M3.7496 47.7779C3.7496 48.832 2.90595 49.6945 1.8748 49.6945C0.843656 49.6945 0 48.8457 0 47.7779C0 46.7238 0.830265 45.8613 1.8748 45.8613C2.90595 45.8613 3.7496 46.7238 3.7496 47.7779Z" fill="black"/>
<path opacity="0.7" d="M20.5693 47.7779C20.5693 48.832 19.739 49.6944 18.6945 49.6944C17.6634 49.6944 16.8197 48.8457 16.8197 47.7779C16.8197 46.7237 17.6634 45.8613 18.6945 45.8613C19.739 45.8613 20.5693 46.7237 20.5693 47.7779Z" fill="black"/>
<path opacity="0.7" d="M37.3891 47.7779C37.3891 48.832 36.5454 49.6944 35.5142 49.6944C34.4831 49.6944 33.6394 48.8457 33.6394 47.7779C33.6394 46.7237 34.4697 45.8613 35.5142 45.8613C36.5587 45.8613 37.3891 46.7237 37.3891 47.7779Z" fill="black"/>
<path opacity="0.7" d="M54.2224 47.7779C54.2224 48.832 53.3921 49.6944 52.3476 49.6944C51.3164 49.6944 50.4728 48.8457 50.4728 47.7779C50.4728 46.7237 51.3164 45.8613 52.3476 45.8613C53.3787 45.8613 54.2224 46.7237 54.2224 47.7779Z" fill="black"/>
<path opacity="0.7" d="M71.0415 47.7779C71.0415 48.832 70.1978 49.6944 69.1667 49.6944C68.1355 49.6944 67.2919 48.8457 67.2919 47.7779C67.2919 46.7237 68.1221 45.8613 69.1667 45.8613C70.2112 45.8613 71.0415 46.7237 71.0415 47.7779Z" fill="black"/>
<path opacity="0.7" d="M87.8747 47.7779C87.8747 48.832 87.0311 49.6944 85.9999 49.6944C84.9688 49.6944 84.1251 48.8457 84.1251 47.7779C84.1251 46.7237 84.9688 45.8613 85.9999 45.8613C87.0311 45.8613 87.8747 46.7237 87.8747 47.7779Z" fill="black"/>
<path opacity="0.7" d="M104.694 47.7779C104.694 48.832 103.851 49.6944 102.82 49.6944C101.788 49.6944 100.945 48.8457 100.945 47.7779C100.945 46.7237 101.775 45.8613 102.82 45.8613C103.851 45.8613 104.694 46.7237 104.694 47.7779Z" fill="black"/>
<path opacity="0.7" d="M121.514 47.7779C121.514 48.832 120.67 49.6944 119.639 49.6944C118.608 49.6944 117.765 48.8457 117.765 47.7779C117.765 46.7237 118.608 45.8613 119.639 45.8613C120.684 45.8613 121.514 46.7237 121.514 47.7779Z" fill="black"/>
<path opacity="0.7" d="M138.347 47.7779C138.347 48.832 137.503 49.6944 136.472 49.6944C135.441 49.6944 134.598 48.8457 134.598 47.7779C134.598 46.7237 135.428 45.8613 136.472 45.8613C137.503 45.8613 138.347 46.7237 138.347 47.7779Z" fill="black"/>
<path opacity="0.7" d="M155.167 47.7779C155.167 48.832 154.324 49.6944 153.292 49.6944C152.261 49.6944 151.418 48.8457 151.418 47.7779C151.418 46.7237 152.261 45.8613 153.292 45.8613C154.337 45.8613 155.167 46.7237 155.167 47.7779Z" fill="black"/>
<path opacity="0.7" d="M172 47.7779C172 48.832 171.17 49.6944 170.125 49.6944C169.081 49.6944 168.25 48.8457 168.25 47.7779C168.25 46.7237 169.081 45.8613 170.125 45.8613C171.17 45.8613 172 46.7237 172 47.7779Z" fill="black"/>
</g>
<g opacity="0.7">
<path opacity="0.7" d="M1.8748 64.9863C2.91023 64.9863 3.7496 64.1282 3.7496 63.0697C3.7496 62.0112 2.91023 61.1531 1.8748 61.1531C0.839373 61.1531 0 62.0112 0 63.0697C0 64.1282 0.839373 64.9863 1.8748 64.9863Z" fill="black"/>
<path opacity="0.7" d="M18.6945 64.9863C19.7299 64.9863 20.5693 64.1282 20.5693 63.0697C20.5693 62.0112 19.7299 61.1531 18.6945 61.1531C17.6591 61.1531 16.8197 62.0112 16.8197 63.0697C16.8197 64.1282 17.6591 64.9863 18.6945 64.9863Z" fill="black"/>
<path opacity="0.7" d="M35.5269 64.9863C36.5623 64.9863 37.4017 64.1282 37.4017 63.0697C37.4017 62.0112 36.5623 61.1531 35.5269 61.1531C34.4915 61.1531 33.6521 62.0112 33.6521 63.0697C33.6521 64.1282 34.4915 64.9863 35.5269 64.9863Z" fill="black"/>
<path opacity="0.7" d="M52.3476 64.9863C53.383 64.9863 54.2224 64.1282 54.2224 63.0697C54.2224 62.0112 53.383 61.1531 52.3476 61.1531C51.3122 61.1531 50.4728 62.0112 50.4728 63.0697C50.4728 64.1282 51.3122 64.9863 52.3476 64.9863Z" fill="black"/>
<path opacity="0.7" d="M69.1805 64.9863C70.2159 64.9863 71.0553 64.1282 71.0553 63.0697C71.0553 62.0112 70.2159 61.1531 69.1805 61.1531C68.145 61.1531 67.3057 62.0112 67.3057 63.0697C67.3057 64.1282 68.145 64.9863 69.1805 64.9863Z" fill="black"/>
<path opacity="0.7" d="M87.8747 63.0697C87.8747 64.1238 87.0311 64.9863 85.9999 64.9863C84.9688 64.9863 84.1251 64.1375 84.1251 63.0697C84.1251 62.0018 84.9688 61.1531 85.9999 61.1531C87.0311 61.1531 87.8747 62.0155 87.8747 63.0697Z" fill="black"/>
<path opacity="0.7" d="M102.82 64.9863C103.855 64.9863 104.694 64.1282 104.694 63.0697C104.694 62.0112 103.855 61.1531 102.82 61.1531C101.784 61.1531 100.945 62.0112 100.945 63.0697C100.945 64.1282 101.784 64.9863 102.82 64.9863Z" fill="black"/>
<path opacity="0.7" d="M121.514 63.0697C121.514 64.1238 120.67 64.9863 119.639 64.9863C118.608 64.9863 117.765 64.1375 117.765 63.0697C117.765 62.0018 118.608 61.1531 119.639 61.1531C120.684 61.1531 121.514 62.0155 121.514 63.0697Z" fill="black"/>
<path opacity="0.7" d="M136.472 64.9863C137.508 64.9863 138.347 64.1282 138.347 63.0697C138.347 62.0112 137.508 61.1531 136.472 61.1531C135.437 61.1531 134.598 62.0112 134.598 63.0697C134.598 64.1282 135.437 64.9863 136.472 64.9863Z" fill="black"/>
<path opacity="0.7" d="M155.167 63.0697C155.167 64.1238 154.324 64.9863 153.292 64.9863C152.261 64.9863 151.418 64.1375 151.418 63.0697C151.418 62.0018 152.261 61.1531 153.292 61.1531C154.337 61.1531 155.167 62.0155 155.167 63.0697Z" fill="black"/>
<path opacity="0.7" d="M170.125 64.9863C171.161 64.9863 172 64.1282 172 63.0697C172 62.0112 171.161 61.1531 170.125 61.1531C169.09 61.1531 168.25 62.0112 168.25 63.0697C168.25 64.1282 169.09 64.9863 170.125 64.9863Z" fill="black"/>
</g>
<g opacity="0.7">
<path opacity="0.7" d="M1.8748 80.2779C2.91023 80.2779 3.7496 79.4198 3.7496 78.3613C3.7496 77.3028 2.91023 76.4447 1.8748 76.4447C0.839373 76.4447 0 77.3028 0 78.3613C0 79.4198 0.839373 80.2779 1.8748 80.2779Z" fill="black"/>
<path opacity="0.7" d="M18.6945 80.2779C19.7299 80.2779 20.5693 79.4198 20.5693 78.3613C20.5693 77.3028 19.7299 76.4447 18.6945 76.4447C17.6591 76.4447 16.8197 77.3028 16.8197 78.3613C16.8197 79.4198 17.6591 80.2779 18.6945 80.2779Z" fill="black"/>
<path opacity="0.7" d="M35.5269 80.2779C36.5623 80.2779 37.4017 79.4198 37.4017 78.3613C37.4017 77.3028 36.5623 76.4447 35.5269 76.4447C34.4915 76.4447 33.6521 77.3028 33.6521 78.3613C33.6521 79.4198 34.4915 80.2779 35.5269 80.2779Z" fill="black"/>
<path opacity="0.7" d="M52.3476 80.2779C53.383 80.2779 54.2224 79.4198 54.2224 78.3613C54.2224 77.3028 53.383 76.4447 52.3476 76.4447C51.3122 76.4447 50.4728 77.3028 50.4728 78.3613C50.4728 79.4198 51.3122 80.2779 52.3476 80.2779Z" fill="black"/>
<path opacity="0.7" d="M69.1805 80.2779C70.2159 80.2779 71.0553 79.4198 71.0553 78.3613C71.0553 77.3028 70.2159 76.4447 69.1805 76.4447C68.145 76.4447 67.3057 77.3028 67.3057 78.3613C67.3057 79.4198 68.145 80.2779 69.1805 80.2779Z" fill="black"/>
<path opacity="0.7" d="M87.8747 78.3613C87.8747 79.4155 87.0311 80.2779 85.9999 80.2779C84.9688 80.2779 84.1251 79.4155 84.1251 78.3613C84.1251 77.3072 84.9688 76.4447 85.9999 76.4447C87.0311 76.4447 87.8747 77.2935 87.8747 78.3613Z" fill="black"/>
<path opacity="0.7" d="M102.82 80.2779C103.855 80.2779 104.694 79.4198 104.694 78.3613C104.694 77.3028 103.855 76.4447 102.82 76.4447C101.784 76.4447 100.945 77.3028 100.945 78.3613C100.945 79.4198 101.784 80.2779 102.82 80.2779Z" fill="black"/>
<path opacity="0.7" d="M121.514 78.3613C121.514 79.4155 120.67 80.2779 119.639 80.2779C118.608 80.2779 117.765 79.4155 117.765 78.3613C117.765 77.3072 118.608 76.4447 119.639 76.4447C120.684 76.4447 121.514 77.2935 121.514 78.3613Z" fill="black"/>
<path opacity="0.7" d="M136.472 80.2779C137.508 80.2779 138.347 79.4198 138.347 78.3613C138.347 77.3028 137.508 76.4447 136.472 76.4447C135.437 76.4447 134.598 77.3028 134.598 78.3613C134.598 79.4198 135.437 80.2779 136.472 80.2779Z" fill="black"/>
<path opacity="0.7" d="M155.167 78.3613C155.167 79.4155 154.324 80.2779 153.292 80.2779C152.261 80.2779 151.418 79.4155 151.418 78.3613C151.418 77.3072 152.261 76.4447 153.292 76.4447C154.337 76.4447 155.167 77.2935 155.167 78.3613Z" fill="black"/>
<path opacity="0.7" d="M170.125 80.2779C171.161 80.2779 172 79.4198 172 78.3613C172 77.3028 171.161 76.4447 170.125 76.4447C169.09 76.4447 168.25 77.3028 168.25 78.3613C168.25 79.4198 169.09 80.2779 170.125 80.2779Z" fill="black"/>
</g>
<g opacity="0.7">
<path opacity="0.7" d="M1.8748 95.5556C2.91023 95.5556 3.7496 94.6975 3.7496 93.639C3.7496 92.5805 2.91023 91.7224 1.8748 91.7224C0.839373 91.7224 0 92.5805 0 93.639C0 94.6975 0.839373 95.5556 1.8748 95.5556Z" fill="black"/>
<path opacity="0.7" d="M18.6945 95.5558C19.7299 95.5558 20.5693 94.6977 20.5693 93.6392C20.5693 92.5807 19.7299 91.7226 18.6945 91.7226C17.6591 91.7226 16.8197 92.5807 16.8197 93.6392C16.8197 94.6977 17.6591 95.5558 18.6945 95.5558Z" fill="black"/>
<path opacity="0.7" d="M35.5269 95.5558C36.5623 95.5558 37.4017 94.6977 37.4017 93.6392C37.4017 92.5807 36.5623 91.7226 35.5269 91.7226C34.4915 91.7226 33.6521 92.5807 33.6521 93.6392C33.6521 94.6977 34.4915 95.5558 35.5269 95.5558Z" fill="black"/>
<path opacity="0.7" d="M52.3476 95.5558C53.383 95.5558 54.2224 94.6977 54.2224 93.6392C54.2224 92.5807 53.383 91.7226 52.3476 91.7226C51.3122 91.7226 50.4728 92.5807 50.4728 93.6392C50.4728 94.6977 51.3122 95.5558 52.3476 95.5558Z" fill="black"/>
<path opacity="0.7" d="M69.1805 95.5558C70.2159 95.5558 71.0553 94.6977 71.0553 93.6392C71.0553 92.5807 70.2159 91.7226 69.1805 91.7226C68.145 91.7226 67.3057 92.5807 67.3057 93.6392C67.3057 94.6977 68.145 95.5558 69.1805 95.5558Z" fill="black"/>
<path opacity="0.7" d="M87.8747 93.6392C87.8747 94.6933 87.0311 95.5558 85.9999 95.5558C84.9688 95.5558 84.1251 94.707 84.1251 93.6392C84.1251 92.5714 84.9688 91.7226 85.9999 91.7226C87.0311 91.7363 87.8747 92.5851 87.8747 93.6392Z" fill="black"/>
<path opacity="0.7" d="M102.82 95.5558C103.855 95.5558 104.694 94.6977 104.694 93.6392C104.694 92.5807 103.855 91.7226 102.82 91.7226C101.784 91.7226 100.945 92.5807 100.945 93.6392C100.945 94.6977 101.784 95.5558 102.82 95.5558Z" fill="black"/>
<path opacity="0.7" d="M121.514 93.6392C121.514 94.6933 120.67 95.5558 119.639 95.5558C118.608 95.5558 117.765 94.707 117.765 93.6392C117.765 92.5714 118.608 91.7226 119.639 91.7226C120.684 91.7363 121.514 92.5851 121.514 93.6392Z" fill="black"/>
<path opacity="0.7" d="M136.472 95.5558C137.508 95.5558 138.347 94.6977 138.347 93.6392C138.347 92.5807 137.508 91.7226 136.472 91.7226C135.437 91.7226 134.598 92.5807 134.598 93.6392C134.598 94.6977 135.437 95.5558 136.472 95.5558Z" fill="black"/>
<path opacity="0.7" d="M155.167 93.6392C155.167 94.6933 154.324 95.5558 153.292 95.5558C152.261 95.5558 151.418 94.707 151.418 93.6392C151.418 92.5714 152.261 91.7226 153.292 91.7226C154.337 91.7363 155.167 92.5851 155.167 93.6392Z" fill="black"/>
<path opacity="0.7" d="M170.125 95.5558C171.161 95.5558 172 94.6977 172 93.6392C172 92.5807 171.161 91.7226 170.125 91.7226C169.09 91.7226 168.25 92.5807 168.25 93.6392C168.25 94.6977 169.09 95.5558 170.125 95.5558Z" fill="black"/>
</g>
<g opacity="0.7">
<path opacity="0.7" d="M3.7496 108.931C3.7496 109.985 2.90595 110.847 1.8748 110.847C0.843656 110.847 0 109.999 0 108.931C0 107.877 0.830265 107.014 1.8748 107.014C2.90595 107.028 3.7496 107.877 3.7496 108.931Z" fill="black"/>
<path opacity="0.7" d="M20.5693 108.931C20.5693 109.985 19.739 110.848 18.6945 110.848C17.6634 110.848 16.8197 109.999 16.8197 108.931C16.8197 107.877 17.6634 107.014 18.6945 107.014C19.739 107.028 20.5693 107.877 20.5693 108.931Z" fill="black"/>
<path opacity="0.7" d="M37.3891 108.931C37.3891 109.985 36.5454 110.848 35.5142 110.848C34.4831 110.848 33.6394 109.999 33.6394 108.931C33.6394 107.877 34.4697 107.014 35.5142 107.014C36.5587 107.028 37.3891 107.877 37.3891 108.931Z" fill="black"/>
<path opacity="0.7" d="M54.2224 108.931C54.2224 109.985 53.3921 110.848 52.3476 110.848C51.3164 110.848 50.4728 109.999 50.4728 108.931C50.4728 107.877 51.3164 107.014 52.3476 107.014C53.3787 107.028 54.2224 107.877 54.2224 108.931Z" fill="black"/>
<path opacity="0.7" d="M71.0415 108.931C71.0415 109.985 70.1978 110.848 69.1667 110.848C68.1355 110.848 67.2919 109.999 67.2919 108.931C67.2919 107.877 68.1221 107.014 69.1667 107.014C70.2112 107.028 71.0415 107.877 71.0415 108.931Z" fill="black"/>
<path opacity="0.7" d="M87.8747 108.931C87.8747 109.985 87.0311 110.848 85.9999 110.848C84.9688 110.848 84.1251 109.999 84.1251 108.931C84.1251 107.877 84.9688 107.014 85.9999 107.014C87.0311 107.028 87.8747 107.877 87.8747 108.931Z" fill="black"/>
<path opacity="0.7" d="M104.694 108.931C104.694 109.985 103.851 110.848 102.82 110.848C101.788 110.848 100.945 109.999 100.945 108.931C100.945 107.877 101.775 107.014 102.82 107.014C103.851 107.028 104.694 107.877 104.694 108.931Z" fill="black"/>
<path opacity="0.7" d="M121.514 108.931C121.514 109.985 120.67 110.848 119.639 110.848C118.608 110.848 117.765 109.999 117.765 108.931C117.765 107.877 118.608 107.014 119.639 107.014C120.684 107.028 121.514 107.877 121.514 108.931Z" fill="black"/>
<path opacity="0.7" d="M138.347 108.931C138.347 109.985 137.503 110.848 136.472 110.848C135.441 110.848 134.598 109.999 134.598 108.931C134.598 107.877 135.428 107.014 136.472 107.014C137.503 107.028 138.347 107.877 138.347 108.931Z" fill="black"/>
<path opacity="0.7" d="M155.167 108.931C155.167 109.985 154.324 110.848 153.292 110.848C152.261 110.848 151.418 109.999 151.418 108.931C151.418 107.877 152.261 107.014 153.292 107.014C154.337 107.028 155.167 107.877 155.167 108.931Z" fill="black"/>
<path opacity="0.7" d="M172 108.931C172 109.985 171.17 110.848 170.125 110.848C169.081 110.848 168.25 109.999 168.25 108.931C168.25 107.877 169.081 107.014 170.125 107.014C171.17 107.014 172 107.877 172 108.931Z" fill="black"/>
</g>
<g opacity="0.7">
<path opacity="0.7" d="M3.7496 124.222C3.7496 125.277 2.90595 126.139 1.8748 126.139C0.843656 126.139 0 125.29 0 124.222C0 123.168 0.830265 122.306 1.8748 122.306C2.90595 122.306 3.7496 123.168 3.7496 124.222Z" fill="black"/>
<path opacity="0.7" d="M20.5693 124.222C20.5693 125.277 19.739 126.139 18.6945 126.139C17.6634 126.139 16.8197 125.29 16.8197 124.222C16.8197 123.168 17.6634 122.306 18.6945 122.306C19.739 122.306 20.5693 123.168 20.5693 124.222Z" fill="black"/>
<path opacity="0.7" d="M37.3891 124.222C37.3891 125.277 36.5454 126.139 35.5142 126.139C34.4831 126.139 33.6394 125.29 33.6394 124.222C33.6394 123.168 34.4697 122.306 35.5142 122.306C36.5587 122.306 37.3891 123.168 37.3891 124.222Z" fill="black"/>
<path opacity="0.7" d="M54.2224 124.222C54.2224 125.277 53.3921 126.139 52.3476 126.139C51.3164 126.139 50.4728 125.29 50.4728 124.222C50.4728 123.168 51.3164 122.306 52.3476 122.306C53.3787 122.306 54.2224 123.168 54.2224 124.222Z" fill="black"/>
<path opacity="0.7" d="M71.0415 124.222C71.0415 125.277 70.1978 126.139 69.1667 126.139C68.1355 126.139 67.2919 125.29 67.2919 124.222C67.2919 123.168 68.1221 122.306 69.1667 122.306C70.2112 122.306 71.0415 123.168 71.0415 124.222Z" fill="black"/>
<path opacity="0.7" d="M87.8747 124.222C87.8747 125.277 87.0311 126.139 85.9999 126.139C84.9688 126.139 84.1251 125.29 84.1251 124.222C84.1251 123.168 84.9688 122.306 85.9999 122.306C87.0311 122.306 87.8747 123.168 87.8747 124.222Z" fill="black"/>
<path opacity="0.7" d="M104.694 124.222C104.694 125.277 103.851 126.139 102.82 126.139C101.788 126.139 100.945 125.29 100.945 124.222C100.945 123.168 101.775 122.306 102.82 122.306C103.851 122.306 104.694 123.168 104.694 124.222Z" fill="black"/>
<path opacity="0.7" d="M121.514 124.222C121.514 125.277 120.67 126.139 119.639 126.139C118.608 126.139 117.765 125.29 117.765 124.222C117.765 123.168 118.608 122.306 119.639 122.306C120.684 122.306 121.514 123.168 121.514 124.222Z" fill="black"/>
<path opacity="0.7" d="M138.347 124.222C138.347 125.277 137.503 126.139 136.472 126.139C135.441 126.139 134.598 125.29 134.598 124.222C134.598 123.168 135.428 122.306 136.472 122.306C137.503 122.306 138.347 123.168 138.347 124.222Z" fill="black"/>
<path opacity="0.7" d="M155.167 124.222C155.167 125.277 154.324 126.139 153.292 126.139C152.261 126.139 151.418 125.29 151.418 124.222C151.418 123.168 152.261 122.306 153.292 122.306C154.337 122.306 155.167 123.168 155.167 124.222Z" fill="black"/>
<path opacity="0.7" d="M172 124.222C172 125.277 171.17 126.139 170.125 126.139C169.081 126.139 168.25 125.29 168.25 124.222C168.25 123.168 169.081 122.306 170.125 122.306C171.17 122.306 172 123.168 172 124.222Z" fill="black"/>
</g>
<g opacity="0.7">
<path opacity="0.7" d="M1.8748 141.431C2.91023 141.431 3.7496 140.572 3.7496 139.514C3.7496 138.455 2.91023 137.597 1.8748 137.597C0.839373 137.597 0 138.455 0 139.514C0 140.572 0.839373 141.431 1.8748 141.431Z" fill="black"/>
<path opacity="0.7" d="M18.6945 141.431C19.7299 141.431 20.5693 140.572 20.5693 139.514C20.5693 138.455 19.7299 137.597 18.6945 137.597C17.6591 137.597 16.8197 138.455 16.8197 139.514C16.8197 140.572 17.6591 141.431 18.6945 141.431Z" fill="black"/>
<path opacity="0.7" d="M35.5269 141.431C36.5623 141.431 37.4017 140.572 37.4017 139.514C37.4017 138.455 36.5623 137.597 35.5269 137.597C34.4915 137.597 33.6521 138.455 33.6521 139.514C33.6521 140.572 34.4915 141.431 35.5269 141.431Z" fill="black"/>
<path opacity="0.7" d="M52.3476 141.431C53.383 141.431 54.2224 140.572 54.2224 139.514C54.2224 138.455 53.383 137.597 52.3476 137.597C51.3122 137.597 50.4728 138.455 50.4728 139.514C50.4728 140.572 51.3122 141.431 52.3476 141.431Z" fill="black"/>
<path opacity="0.7" d="M69.1805 141.431C70.2159 141.431 71.0553 140.572 71.0553 139.514C71.0553 138.455 70.2159 137.597 69.1805 137.597C68.145 137.597 67.3057 138.455 67.3057 139.514C67.3057 140.572 68.145 141.431 69.1805 141.431Z" fill="black"/>
<path opacity="0.7" d="M87.8747 139.514C87.8747 140.568 87.0311 141.431 85.9999 141.431C84.9688 141.431 84.1251 140.582 84.1251 139.514C84.1251 138.446 84.9688 137.597 85.9999 137.597C87.0311 137.597 87.8747 138.46 87.8747 139.514Z" fill="black"/>
<path opacity="0.7" d="M102.82 141.431C103.855 141.431 104.694 140.572 104.694 139.514C104.694 138.455 103.855 137.597 102.82 137.597C101.784 137.597 100.945 138.455 100.945 139.514C100.945 140.572 101.784 141.431 102.82 141.431Z" fill="black"/>
<path opacity="0.7" d="M121.514 139.514C121.514 140.568 120.67 141.431 119.639 141.431C118.608 141.431 117.765 140.582 117.765 139.514C117.765 138.446 118.608 137.597 119.639 137.597C120.684 137.597 121.514 138.46 121.514 139.514Z" fill="black"/>
<path opacity="0.7" d="M136.472 141.431C137.508 141.431 138.347 140.572 138.347 139.514C138.347 138.455 137.508 137.597 136.472 137.597C135.437 137.597 134.598 138.455 134.598 139.514C134.598 140.572 135.437 141.431 136.472 141.431Z" fill="black"/>
<path opacity="0.7" d="M155.167 139.514C155.167 140.568 154.324 141.431 153.292 141.431C152.261 141.431 151.418 140.582 151.418 139.514C151.418 138.446 152.261 137.597 153.292 137.597C154.337 137.597 155.167 138.46 155.167 139.514Z" fill="black"/>
<path opacity="0.7" d="M170.125 141.431C171.161 141.431 172 140.572 172 139.514C172 138.455 171.161 137.597 170.125 137.597C169.09 137.597 168.25 138.455 168.25 139.514C168.25 140.572 169.09 141.431 170.125 141.431Z" fill="black"/>
</g>
<g opacity="0.7">
<path opacity="0.7" d="M3.7496 154.792C3.7496 155.846 2.90595 156.709 1.8748 156.709C0.843656 156.709 0 155.846 0 154.792C0 153.738 0.830265 152.875 1.8748 152.875C2.90595 152.889 3.7496 153.738 3.7496 154.792Z" fill="black"/>
<path opacity="0.7" d="M20.5693 154.792C20.5693 155.846 19.739 156.709 18.6945 156.709C17.6634 156.709 16.8197 155.846 16.8197 154.792C16.8197 153.738 17.6634 152.875 18.6945 152.875C19.739 152.889 20.5693 153.738 20.5693 154.792Z" fill="black"/>
<path opacity="0.7" d="M37.3891 154.792C37.3891 155.846 36.5454 156.709 35.5142 156.709C34.4831 156.709 33.6394 155.846 33.6394 154.792C33.6394 153.738 34.4697 152.875 35.5142 152.875C36.5587 152.889 37.3891 153.738 37.3891 154.792Z" fill="black"/>
<path opacity="0.7" d="M54.2224 154.792C54.2224 155.846 53.3921 156.709 52.3476 156.709C51.3164 156.709 50.4728 155.846 50.4728 154.792C50.4728 153.738 51.3164 152.875 52.3476 152.875C53.3787 152.889 54.2224 153.738 54.2224 154.792Z" fill="black"/>
<path opacity="0.7" d="M71.0415 154.792C71.0415 155.846 70.1978 156.709 69.1667 156.709C68.1355 156.709 67.2919 155.846 67.2919 154.792C67.2919 153.738 68.1221 152.875 69.1667 152.875C70.2112 152.889 71.0415 153.738 71.0415 154.792Z" fill="black"/>
<path opacity="0.7" d="M87.8747 154.792C87.8747 155.846 87.0311 156.709 85.9999 156.709C84.9688 156.709 84.1251 155.846 84.1251 154.792C84.1251 153.738 84.9688 152.875 85.9999 152.875C87.0311 152.889 87.8747 153.738 87.8747 154.792Z" fill="black"/>
<path opacity="0.7" d="M104.694 154.792C104.694 155.846 103.851 156.709 102.82 156.709C101.788 156.709 100.945 155.846 100.945 154.792C100.945 153.738 101.775 152.875 102.82 152.875C103.851 152.889 104.694 153.738 104.694 154.792Z" fill="black"/>
<path opacity="0.7" d="M121.514 154.792C121.514 155.846 120.67 156.709 119.639 156.709C118.608 156.709 117.765 155.846 117.765 154.792C117.765 153.738 118.608 152.875 119.639 152.875C120.684 152.889 121.514 153.738 121.514 154.792Z" fill="black"/>
<path opacity="0.7" d="M138.347 154.792C138.347 155.846 137.503 156.709 136.472 156.709C135.441 156.709 134.598 155.846 134.598 154.792C134.598 153.738 135.428 152.875 136.472 152.875C137.503 152.889 138.347 153.738 138.347 154.792Z" fill="black"/>
<path opacity="0.7" d="M155.167 154.792C155.167 155.846 154.324 156.709 153.292 156.709C152.261 156.709 151.418 155.846 151.418 154.792C151.418 153.738 152.261 152.875 153.292 152.875C154.337 152.889 155.167 153.738 155.167 154.792Z" fill="black"/>
<path opacity="0.7" d="M172 154.792C172 155.846 171.17 156.709 170.125 156.709C169.081 156.709 168.25 155.846 168.25 154.792C168.25 153.738 169.081 152.875 170.125 152.875C171.17 152.875 172 153.738 172 154.792Z" fill="black"/>
</g>
<g opacity="0.7">
<path opacity="0.7" d="M1.8748 172C2.91023 172 3.7496 171.142 3.7496 170.084C3.7496 169.025 2.91023 168.167 1.8748 168.167C0.839373 168.167 0 169.025 0 170.084C0 171.142 0.839373 172 1.8748 172Z" fill="black"/>
<path opacity="0.7" d="M18.6945 172C19.7299 172 20.5693 171.142 20.5693 170.084C20.5693 169.025 19.7299 168.167 18.6945 168.167C17.6591 168.167 16.8197 169.025 16.8197 170.084C16.8197 171.142 17.6591 172 18.6945 172Z" fill="black"/>
<path opacity="0.7" d="M35.5269 172C36.5623 172 37.4017 171.142 37.4017 170.084C37.4017 169.025 36.5623 168.167 35.5269 168.167C34.4915 168.167 33.6521 169.025 33.6521 170.084C33.6521 171.142 34.4915 172 35.5269 172Z" fill="black"/>
<path opacity="0.7" d="M52.3476 172C53.383 172 54.2224 171.142 54.2224 170.084C54.2224 169.025 53.383 168.167 52.3476 168.167C51.3122 168.167 50.4728 169.025 50.4728 170.084C50.4728 171.142 51.3122 172 52.3476 172Z" fill="black"/>
<path opacity="0.7" d="M69.1805 172C70.2159 172 71.0553 171.142 71.0553 170.084C71.0553 169.025 70.2159 168.167 69.1805 168.167C68.145 168.167 67.3057 169.025 67.3057 170.084C67.3057 171.142 68.145 172 69.1805 172Z" fill="black"/>
<path opacity="0.7" d="M87.8747 170.084C87.8747 171.138 87.0311 172 85.9999 172C84.9688 172 84.1251 171.138 84.1251 170.084C84.1251 169.03 84.9688 168.167 85.9999 168.167C87.0311 168.181 87.8747 169.03 87.8747 170.084Z" fill="black"/>
<path opacity="0.7" d="M102.82 172C103.855 172 104.694 171.142 104.694 170.084C104.694 169.025 103.855 168.167 102.82 168.167C101.784 168.167 100.945 169.025 100.945 170.084C100.945 171.142 101.784 172 102.82 172Z" fill="black"/>
<path opacity="0.7" d="M121.514 170.084C121.514 171.138 120.67 172 119.639 172C118.608 172 117.765 171.138 117.765 170.084C117.765 169.03 118.608 168.167 119.639 168.167C120.684 168.181 121.514 169.03 121.514 170.084Z" fill="black"/>
<path opacity="0.7" d="M136.472 172C137.508 172 138.347 171.142 138.347 170.084C138.347 169.025 137.508 168.167 136.472 168.167C135.437 168.167 134.598 169.025 134.598 170.084C134.598 171.142 135.437 172 136.472 172Z" fill="black"/>
<path opacity="0.7" d="M155.167 170.084C155.167 171.138 154.324 172 153.292 172C152.261 172 151.418 171.138 151.418 170.084C151.418 169.03 152.261 168.167 153.292 168.167C154.337 168.181 155.167 169.03 155.167 170.084Z" fill="black"/>
<path opacity="0.7" d="M170.125 172C171.161 172 172 171.142 172 170.084C172 169.025 171.161 168.167 170.125 168.167C169.09 168.167 168.25 169.025 168.25 170.084C168.25 171.142 169.09 172 170.125 172Z" fill="black"/>
</g>
</g>
</svg>
