<svg width="20" height="20" viewBox="0 0 20 20" fill="none" xmlns="http://www.w3.org/2000/svg">
<path d="M10.0011 2.88249e-08C8.26429 -0.00013182 6.55742 0.45206 5.0485 1.31205C3.53959 2.17205 2.28067 3.41019 1.39568 4.90458C0.510688 6.39897 0.0301488 8.09808 0.00137302 9.83462C-0.0274028 11.5712 0.396576 13.2853 1.23157 14.8082L0.414234 17.6929C0.337987 17.9557 0.333701 18.2342 0.401823 18.4993C0.469946 18.7644 0.607979 19.0063 0.801512 19.1999C0.995045 19.3934 1.23698 19.5314 1.50207 19.5996C1.76715 19.6677 2.04566 19.6634 2.30852 19.5872L5.19323 18.7698C6.53008 19.5025 8.01676 19.9199 9.53963 19.99C11.0625 20.0602 12.5812 19.7812 13.9798 19.1745C15.3783 18.5677 16.6196 17.6493 17.6088 16.4893C18.598 15.3293 19.309 13.9586 19.6872 12.4818C20.0655 11.005 20.1012 9.46121 19.7914 7.96852C19.4817 6.47583 18.8348 5.07372 17.9002 3.86934C16.9655 2.66496 15.7679 1.69021 14.3989 1.01958C13.0298 0.348958 11.5256 0.000211168 10.0011 2.88249e-08ZM10.0011 18.4621C8.4821 18.4607 6.99125 18.0523 5.68363 17.2794C5.56296 17.2121 5.42752 17.1758 5.28939 17.1736C5.2179 17.1737 5.14675 17.1834 5.07784 17.2025L1.88543 18.116L2.79892 14.9235C2.82702 14.8225 2.8347 14.7169 2.82149 14.6129C2.80828 14.5089 2.77446 14.4085 2.722 14.3178C1.76943 12.7121 1.37461 10.8365 1.59905 8.98307C1.82349 7.12965 2.65458 5.40249 3.96287 4.07061C5.27116 2.73873 6.98319 1.87691 8.8323 1.61939C10.6814 1.36187 12.5638 1.72311 14.1862 2.64684C15.8086 3.57057 17.08 5.00493 17.8023 6.7265C18.5246 8.44806 18.6573 10.3602 18.1797 12.165C17.7021 13.9698 16.641 15.5661 15.1617 16.705C13.6825 17.844 11.868 18.4618 10.0011 18.4621ZM15.0493 11.4523L13.0781 10.3272C12.842 10.1914 12.5738 10.1215 12.3014 10.1249C12.029 10.1282 11.7626 10.2048 11.53 10.3465L10.3857 11.0292C9.80198 10.6859 9.31547 10.1994 8.97219 9.61569L9.65491 8.47142C9.79659 8.23879 9.87314 7.97235 9.87652 7.69999C9.8799 7.42763 9.81 7.15937 9.67414 6.92329L8.5491 4.95208C8.424 4.73343 8.24345 4.55164 8.02567 4.42502C7.8079 4.29841 7.56059 4.23145 7.30868 4.2309C6.39226 4.2309 5.51323 4.59429 4.86432 5.24139C4.21541 5.8885 3.84958 6.76651 3.84703 7.68293C3.84703 9.92803 4.73823 12.0813 6.32485 13.6697C7.91147 15.2582 10.0637 16.1518 12.3088 16.1544H12.3185C13.2349 16.1518 14.1129 15.786 14.76 15.1371C15.4071 14.4882 15.7705 13.6091 15.7705 12.6927C15.7699 12.4408 15.703 12.1935 15.5764 11.9757C15.4497 11.7579 15.268 11.5774 15.0493 11.4523ZM12.3185 14.6158C11.4077 14.6171 10.5056 14.4386 9.66385 14.0907C8.82213 13.7427 8.05735 13.2321 7.41332 12.5881C6.76929 11.944 6.25866 11.1793 5.9107 10.3375C5.56274 9.49583 5.38428 8.59373 5.38554 7.68293C5.38539 7.18366 5.58038 6.70409 5.9289 6.34659C6.27742 5.98908 6.75187 5.78196 7.25099 5.76941L8.33756 7.68293L7.43368 9.18298C7.37112 9.28997 7.33499 9.41035 7.3283 9.5341C7.32161 9.65786 7.34456 9.78143 7.39522 9.89454C7.93114 11.1037 8.89769 12.0702 10.1068 12.6062C10.22 12.6568 10.3435 12.6798 10.4673 12.6731C10.591 12.6664 10.7114 12.6303 10.8184 12.5677L12.3185 11.6638L14.232 12.7504C14.2194 13.2495 14.0123 13.724 13.6548 14.0725C13.2973 14.421 12.8177 14.616 12.3185 14.6158Z" fill="white"/>
</svg>
