<svg width="22" height="18" viewBox="0 0 22 18" fill="none" xmlns="http://www.w3.org/2000/svg">
<path d="M20.9656 3.54373C20.8795 3.19809 20.7108 2.87851 20.474 2.61236C20.2373 2.34622 19.9395 2.14145 19.6063 2.0156C16.4 0.778103 11.2812 0.787478 11 0.787478C10.7188 0.787478 5.6 0.778103 2.39375 2.0156C2.06051 2.14145 1.76275 2.34622 1.52599 2.61236C1.28923 2.87851 1.12054 3.19809 1.03438 3.54373C0.790625 4.47185 0.5 6.1781 0.5 8.99998C0.5 11.8219 0.790625 13.5281 1.03438 14.4562C1.12054 14.8019 1.28923 15.1214 1.52599 15.3876C1.76275 15.6537 2.06051 15.8585 2.39375 15.9844C5.46875 17.175 10.2875 17.2125 10.9344 17.2125H11.0656C11.7125 17.2125 16.5312 17.175 19.6063 15.9844C19.9395 15.8585 20.2373 15.6537 20.474 15.3876C20.7108 15.1214 20.8795 14.8019 20.9656 14.4562C21.2094 13.5281 21.5 11.8219 21.5 8.99998C21.5 6.1781 21.2094 4.47185 20.9656 3.54373ZM14.2062 9.30935L9.70625 12.3094C9.64657 12.3533 9.57409 12.3763 9.5 12.375C9.4379 12.3727 9.37707 12.3567 9.32187 12.3281C9.26195 12.2969 9.21184 12.2498 9.17708 12.1919C9.14233 12.1339 9.1243 12.0675 9.125 12V5.99998C9.1243 5.93244 9.14233 5.86602 9.17708 5.8081C9.21184 5.75018 9.26195 5.70302 9.32187 5.67185C9.38166 5.63996 9.44897 5.62486 9.51665 5.62816C9.58433 5.63146 9.64985 5.65304 9.70625 5.6906L14.2062 8.6906C14.2585 8.72354 14.3016 8.76919 14.3315 8.82329C14.3614 8.87739 14.377 8.93818 14.377 8.99998C14.377 9.06177 14.3614 9.12256 14.3315 9.17667C14.3016 9.23077 14.2585 9.27642 14.2062 9.30935Z" fill="white"/>
</svg>
